<?xml version="1.0" encoding="UTF-8" standalone="no"?>
<!-- Created with Inkscape (http://www.inkscape.org/) -->

<svg
   width="100mm"
   height="100mm"
   viewBox="0 0 100 100"
   version="1.1"
   id="svg1"
   inkscape:version="1.3.2 (091e20ef0f, 2023-11-25, custom)"
   xml:space="preserve"
   sodipodi:docname="zeta_vertical.svg"
   xmlns:inkscape="http://www.inkscape.org/namespaces/inkscape"
   xmlns:sodipodi="http://sodipodi.sourceforge.net/DTD/sodipodi-0.dtd"
   xmlns="http://www.w3.org/2000/svg"
   xmlns:svg="http://www.w3.org/2000/svg"><sodipodi:namedview
     id="namedview1"
     pagecolor="#ffffff"
     bordercolor="#000000"
     borderopacity="0.25"
     inkscape:showpageshadow="2"
     inkscape:pageopacity="0.0"
     inkscape:pagecheckerboard="0"
     inkscape:deskcolor="#d1d1d1"
     inkscape:document-units="mm"
     showgrid="true"
     inkscape:zoom="1.1350625"
     inkscape:cx="225.53824"
     inkscape:cy="172.67772"
     inkscape:window-width="1920"
     inkscape:window-height="1080"
     inkscape:window-x="1920"
     inkscape:window-y="0"
     inkscape:window-maximized="1"
     inkscape:current-layer="layer1"
     showguides="true" /><defs
     id="defs1"><rect
       x="-948.78584"
       y="266.18368"
       width="638.42418"
       height="152.19572"
       id="rect1" /><inkscape:path-effect
       effect="fill_between_many"
       method="originald"
       linkedpaths="#path159,0,1|"
       id="path-effect4" /><inkscape:path-effect
       effect="fill_between_many"
       method="originald"
       linkedpaths="#path161,0,1|"
       id="path-effect5" /><inkscape:path-effect
       effect="fill_between_many"
       method="originald"
       linkedpaths="#path157,0,1|"
       id="path-effect6" /><inkscape:path-effect
       effect="fill_between_many"
       method="originald"
       linkedpaths="#path155,0,1|"
       id="path-effect7" /><inkscape:path-effect
       effect="fill_between_many"
       method="originald"
       linkedpaths="#path31,0,1|"
       id="path-effect32" /><inkscape:path-effect
       effect="fill_between_many"
       method="originald"
       linkedpaths="#path29,0,1|"
       id="path-effect33" /><inkscape:path-effect
       effect="fill_between_many"
       method="originald"
       linkedpaths="#path147,0,1|"
       id="path-effect36" /></defs><g
     inkscape:label="Layer 1"
     inkscape:groupmode="layer"
     id="layer1"><text
       xml:space="preserve"
       transform="matrix(0.26458333,0,0,0.26458333,-69.447647,-10.482535)"
       id="text1"
       style="font-size:192px;font-family:Serif;-inkscape-font-specification:'Serif, Normal';white-space:pre;shape-inside:url(#rect1);display:inline;fill:#d87233;fill-opacity:1;stroke:#000000;stroke-width:1.00157;stroke-opacity:1"><tspan
         x="-948.78516"
         y="593.07494"
         id="tspan5"><tspan
           dx="0 122.68799 125.76013 110.59204"
           style="font-family:REM;-inkscape-font-specification:REM"
           id="tspan4">ZETA</tspan></tspan></text><g
       id="g116"
       transform="matrix(0.60981386,0,0,0.60981386,152.37864,21.963419)"><path
         inkscape:original-d="M 0,0"
         inkscape:path-effect="#path-effect5"
         d="m -126.86086,13.156923 c -0.72228,-0.649074 -0.85069,-1.002217 -1.18978,-3.2719922 -1.33645,-8.94589815 -7.63831,-18.295469 -16.08035,-23.8571348 -2.74307,-1.807155 -2.96292,-2.081127 -2.96292,-3.692257 0,-1.695503 0.89628,-2.58226 2.61,-2.58226 2.94888,0 10.89414,6.522932 15.06726,12.3699798 3.8454,5.3878577 6.48606,12.1858371 6.9735,17.9521842 l 0.1635,1.934197 -0.93745,0.937444 c -1.20942,1.209418 -2.45182,1.280967 -3.64376,0.209839 z"
         id="path5"
         style="fill:#d5691b;fill-opacity:1" /><path
         id="path161"
         style="fill:#000000"
         d="m -126.86086,13.156923 c -0.72228,-0.649074 -0.85069,-1.002217 -1.18978,-3.2719922 -1.33645,-8.94589815 -7.63831,-18.295469 -16.08035,-23.8571348 -2.74307,-1.807155 -2.96292,-2.081127 -2.96292,-3.692257 0,-1.695503 0.89628,-2.58226 2.61,-2.58226 2.94888,0 10.89414,6.522932 15.06726,12.3699798 3.8454,5.3878577 6.48606,12.1858371 6.9735,17.9521842 l 0.1635,1.934197 -0.93745,0.937444 c -1.20942,1.209418 -2.45182,1.280967 -3.64376,0.209839 z m 2.85184,-0.327829 c 0.82706,-0.504266 0.8599,-0.589457 0.8599,-2.230672 0,-3.1466652 -1.19318,-7.4814292 -3.27334,-11.8918834 -3.04038,-6.4463898 -8.17269,-12.3816656 -14.043,-16.2400756 -3.24755,-2.134529 -4.08688,-2.436603 -5.03825,-1.813243 -1.54188,1.010277 -1.37452,2.593051 0.40112,3.793468 6.63295,4.484202 9.99407,7.9267668 13.5209,13.8485487 1.20713,2.02684625 3.16028,6.6308101 3.63899,8.5778321 0.14311,0.582084 0.34366,1.772709 0.44566,2.645833 0.23085,1.9761102 0.45269,2.5795172 1.2066,3.2818852 0.7399,0.689324 1.18815,0.694886 2.28142,0.02831 z" /><path
         inkscape:original-d="M 0,0"
         inkscape:path-effect="#path-effect4"
         d="m -211.41412,12.984944 c -0.77668,-0.776681 -0.89931,-1.0749 -0.89758,-2.182812 0.009,-5.4841532 3.26298,-13.8341942 7.5953,-19.4875752 1.8948,-2.4725818 5.50671,-6.1359808 7.88082,-7.9931748 4.80374,-3.757814 7.13587,-4.498094 8.6902,-2.758498 0.6584,0.736872 0.74501,1.011434 0.63287,2.006279 -0.0714,0.633917 -0.29307,1.349173 -0.49249,1.589457 -0.19942,0.240285 -1.50136,1.185376 -2.89321,2.100203 -3.04902,2.004043 -7.45602,6.2665128 -9.55037,9.2371638 -3.31669,4.70441725 -5.49649,9.786209 -6.18525,14.41979 -0.33191,2.2329272 -0.46352,2.5947732 -1.17884,3.2411462 -1.17134,1.058437 -2.43119,0.998275 -3.60145,-0.171979 z"
         id="path4"
         style="fill:#d5691b;fill-opacity:1" /><path
         id="path159"
         style="fill:#000000"
         d="m -211.41412,12.984944 c -0.77668,-0.776681 -0.89931,-1.0749 -0.89758,-2.182812 0.009,-5.4841532 3.26298,-13.8341942 7.5953,-19.4875752 1.8948,-2.4725818 5.50671,-6.1359808 7.88082,-7.9931748 4.80374,-3.757814 7.13587,-4.498094 8.6902,-2.758498 0.6584,0.736872 0.74501,1.011434 0.63287,2.006279 -0.0714,0.633917 -0.29307,1.349173 -0.49249,1.589457 -0.19942,0.240285 -1.50136,1.185376 -2.89321,2.100203 -3.04902,2.004043 -7.45602,6.2665128 -9.55037,9.2371638 -3.31669,4.70441725 -5.49649,9.786209 -6.18525,14.41979 -0.33191,2.2329272 -0.46352,2.5947732 -1.17884,3.2411462 -1.17134,1.058437 -2.43119,0.998275 -3.60145,-0.171979 z m 2.78566,-0.01667 c 0.91589,-0.473626 0.96657,-0.601249 1.46245,-3.6828352 1.44051,-8.95196105 7.99413,-18.633008 16.15126,-23.8587368 2.35491,-1.50863 2.77813,-1.947758 2.77813,-2.882544 0,-1.088618 -0.6143,-1.915667 -1.58051,-2.127883 -2.50803,-0.550857 -11.53921,7.068929 -15.62726,13.1850168 -3.07499,4.600447 -5.48666,10.585908 -6.08897,15.112007 -0.3497,2.6277852 -0.10578,3.6214062 1.04212,4.2452812 0.87667,0.476458 0.95932,0.476888 1.86278,0.0097 z" /><path
         inkscape:original-d="M 0,0"
         inkscape:path-effect="#path-effect6"
         d="m -117.42286,24.473966 c -2.95514,-0.938609 -3.49649,-5.502784 -0.84691,-7.140313 1.1822,-0.730638 3.09733,-0.817263 4.28937,-0.194018 2.42566,1.268218 2.64587,5.168724 0.3828,6.780173 -0.89441,0.636876 -2.72836,0.902557 -3.82526,0.554158 z"
         id="path6"
         style="fill:#d5691b;fill-opacity:1" /><path
         id="path157"
         style="fill:#000000"
         d="m -117.42286,24.473966 c -2.95514,-0.938609 -3.49649,-5.502784 -0.84691,-7.140313 1.1822,-0.730638 3.09733,-0.817263 4.28937,-0.194018 2.42566,1.268218 2.64587,5.168724 0.3828,6.780173 -0.89441,0.636876 -2.72836,0.902557 -3.82526,0.554158 z m 3.86122,-1.53397 c 1.14225,-1.142249 1.27948,-2.664617 0.35984,-3.991665 -1.16016,-1.674116 -2.93948,-2.104016 -4.57666,-1.105765 -3.23266,1.971062 -1.16984,6.892442 2.54355,6.068295 0.49652,-0.110196 1.24949,-0.547086 1.67327,-0.970865 z" /><path
         inkscape:original-d="M 0,0"
         inkscape:path-effect="#path-effect7"
         d="m -220.6567,24.20388 c -2.42415,-1.199967 -2.90019,-4.583282 -0.91277,-6.487349 0.7015,-0.672076 1.04765,-0.786607 2.65126,-0.877219 1.84165,-0.104063 1.84594,-0.102687 2.86202,0.917894 1.17116,1.176346 1.52646,2.468632 1.10701,4.02636 -0.38817,1.441562 -1.12619,2.273906 -2.33818,2.637028 -1.45432,0.435726 -2.14044,0.391595 -3.36934,-0.216714 z"
         id="path7"
         style="fill:#d5691b;fill-opacity:1" /><path
         id="path155"
         style="fill:#000000"
         d="m -220.6567,24.20388 c -2.42415,-1.199967 -2.90019,-4.583282 -0.91277,-6.487349 0.7015,-0.672076 1.04765,-0.786607 2.65126,-0.877219 1.84165,-0.104063 1.84594,-0.102687 2.86202,0.917894 1.17116,1.176346 1.52646,2.468632 1.10701,4.02636 -0.38817,1.441562 -1.12619,2.273906 -2.33818,2.637028 -1.45432,0.435726 -2.14044,0.391595 -3.36934,-0.216714 z m 4.56933,-1.571749 c 0.39916,-0.592316 0.59867,-1.280909 0.59867,-2.066315 0,-0.982783 -0.14647,-1.324421 -0.88399,-2.061943 -1.5686,-1.568603 -3.52444,-1.557358 -4.91663,0.02827 -1.03429,1.177991 -1.11643,2.762802 -0.2127,4.103849 1.21872,1.808466 4.19476,1.806346 5.41465,-0.0039 z" /><path
         inkscape:original-d="M 0,0"
         inkscape:path-effect="#path-effect32"
         d="m -168.95947,23.41415 c -1.79639,-0.317609 -2.9778,-0.962745 -4.20898,-2.298411 -1.61246,-1.749318 -2.20786,-3.263804 -2.21934,-5.645238 -0.008,-1.644596 0.11622,-2.243029 0.72241,-3.482018 1.50784,-3.0819172 3.95501,-4.5856872 7.46313,-4.5860362 1.78489,-1.78e-4 2.35407,0.116366 3.63121,0.743519 1.59213,0.781833 3.02897,2.2310562 3.81529,3.8481692 0.58636,1.205902 0.78894,4.457769 0.37015,5.941829 -1.09584,3.883291 -5.22643,6.246826 -9.57387,5.478186 z"
         id="path32"
         style="fill:#d5691b;fill-opacity:1" /><path
         id="path31"
         style="fill:#000000;fill-opacity:1"
         d="m -168.95947,23.41415 c -1.79639,-0.317609 -2.9778,-0.962745 -4.20898,-2.298411 -1.61246,-1.749318 -2.20786,-3.263804 -2.21934,-5.645238 -0.008,-1.644596 0.11622,-2.243029 0.72241,-3.482018 1.50784,-3.0819172 3.95501,-4.5856872 7.46313,-4.5860362 1.78489,-1.78e-4 2.35407,0.116366 3.63121,0.743519 1.59213,0.781833 3.02897,2.2310562 3.81529,3.8481692 0.58636,1.205902 0.78894,4.457769 0.37015,5.941829 -1.09584,3.883291 -5.22643,6.246826 -9.57387,5.478186 z m 4.9423,-1.159686 c 4.29292,-1.999047 5.65682,-7.404075 2.81378,-11.150728 -1.50337,-1.9811882 -3.12415,-2.8420612 -5.62317,-2.9867272 -1.87241,-0.108392 -2.21658,-0.04652 -3.76062,0.676022 -2.64693,1.2386492 -4.13939,3.6199382 -4.14988,6.6213482 -0.0114,3.272279 1.81349,5.934917 4.8766,7.115123 1.44828,0.55802 4.34736,0.421564 5.84329,-0.275038 z" /><path
         inkscape:original-d="M 0,0"
         inkscape:path-effect="#path-effect33"
         d="m -193.52829,41.793691 c 0,-0.220688 1.6873,-3.316313 3.74955,-6.879166 l 3.74954,-6.477915 h 4.58483 c 4.02168,0 4.58483,0.05187 4.58483,0.422295 0,0.232262 -0.52924,1.393121 -1.17609,2.579687 l -1.17609,2.157393 11.99549,-0.07137 11.99549,-0.07137 -1.30293,-2.167875 c -0.71662,-1.192332 -1.26933,-2.337534 -1.22826,-2.544895 0.0615,-0.310655 0.86643,-0.369396 4.5726,-0.333709 3.91343,0.03768 4.54375,0.102603 4.85064,0.499594 0.3672,0.475011 4.28288,7.138204 6.302,10.723932 0.63971,1.136061 1.09372,2.177858 1.00889,2.315104 -0.0949,0.153608 -10.21787,0.249538 -26.33235,0.249538 -23.21997,0 -26.17814,-0.04534 -26.17814,-0.401251 z"
         id="path33"
         style="fill:#d5691b;fill-opacity:1" /><path
         id="path29"
         style="fill:#000000;fill-opacity:1"
         d="m -193.52829,41.793691 c 0,-0.220688 1.6873,-3.316313 3.74955,-6.879166 l 3.74954,-6.477915 h 4.58483 c 4.02168,0 4.58483,0.05187 4.58483,0.422295 0,0.232262 -0.52924,1.393121 -1.17609,2.579687 l -1.17609,2.157393 11.99549,-0.07137 11.99549,-0.07137 -1.30293,-2.167875 c -0.71662,-1.192332 -1.26933,-2.337534 -1.22826,-2.544895 0.0615,-0.310655 0.86643,-0.369396 4.5726,-0.333709 3.91343,0.03768 4.54375,0.102603 4.85064,0.499594 0.3672,0.475011 4.28288,7.138204 6.302,10.723932 0.63971,1.136061 1.09372,2.177858 1.00889,2.315104 -0.0949,0.153608 -10.21787,0.249538 -26.33235,0.249538 -23.21997,0 -26.17814,-0.04534 -26.17814,-0.401251 z m 51.3499,-1.120103 c -0.28556,-0.545703 -1.93459,-3.373437 -3.66451,-6.283853 l -3.14532,-5.291667 -4.04306,-0.07319 -4.04305,-0.0732 0.66105,1.131529 c 1.56583,2.68022 2.05864,3.670817 1.92985,3.879198 -0.19254,0.311541 -25.24285,0.31518 -25.43535,0.0037 -0.0842,-0.1363 0.39103,-1.246161 1.05616,-2.466359 0.66513,-1.220198 1.20933,-2.292613 1.20933,-2.383144 0,-0.09053 -1.79759,-0.131737 -3.99465,-0.09157 l -3.99464,0.07304 -1.37832,2.38125 c -0.75808,1.309687 -2.35377,4.067587 -3.54598,6.128666 -1.19221,2.061078 -2.16766,3.81725 -2.16766,3.902604 0,0.08535 11.49195,0.155188 25.53767,0.155188 h 25.53767 z" /><text
         xml:space="preserve"
         style="font-style:normal;font-variant:normal;font-weight:normal;font-stretch:normal;font-size:52.9167px;font-family:REM;-inkscape-font-specification:REM;letter-spacing:7.9375px;fill:#e4e7ec;fill-opacity:1;stroke:#000000;stroke-width:1;stroke-dasharray:none;stroke-opacity:1"
         x="-250.35312"
         y="102.78374"
         id="text2"><tspan
           sodipodi:role="line"
           id="tspan1"
           style="font-style:normal;font-variant:normal;font-weight:bold;font-stretch:normal;font-size:52.9167px;font-family:REM;-inkscape-font-specification:'REM Bold';letter-spacing:7.9375px;fill:#e4e7ec;fill-opacity:1;stroke-width:1;stroke-dasharray:none"
           x="-250.35312"
           y="102.78374">ZETA</tspan></text><text
         xml:space="preserve"
         style="font-style:normal;font-variant:normal;font-weight:bold;font-stretch:normal;font-size:17.6389px;font-family:REM;-inkscape-font-specification:'REM Bold';letter-spacing:2.64583px;fill:#c56018;fill-opacity:1;stroke:#000000;stroke-width:0.264999;stroke-opacity:1"
         x="-195.5798"
         y="122.94552"
         id="text3"><tspan
           sodipodi:role="line"
           id="tspan2"
           style="font-size:17.6389px;letter-spacing:2.64583px;stroke-width:0.265"
           x="-195.5798"
           y="122.94552">LABS</tspan></text><path
         style="fill:none;fill-opacity:1;stroke:#d5691b;stroke-width:8;stroke-dasharray:none;stroke-opacity:1"
         d="m -167.19801,-23.848316 -46.45833,77.672688 92.97649,0.426427 z"
         id="path88"
         sodipodi:nodetypes="cccc" /><path
         style="fill:none;fill-opacity:1;stroke:#000000;stroke-width:1;stroke-dasharray:none;stroke-opacity:1"
         d="m -167.29319,-31.902883 -53.87919,90.064174 107.87587,-0.0063 z"
         id="path89"
         sodipodi:nodetypes="cccc" /><path
         style="fill:none;fill-opacity:1;stroke:#000000;stroke-width:0.770127;stroke-dasharray:none;stroke-opacity:1"
         d="m -167.23563,-15.550298 -38.98555,65.322209 78.52723,0.321079 z"
         id="path90"
         sodipodi:nodetypes="cccc" /></g></g></svg>
